<svg width="290" height="50" viewBox="0 0 290 50" fill="none" xmlns="http://www.w3.org/2000/svg">
<g filter="url(#filter0_f_849_1472)">
<path d="M159.513 37.6331C160.013 37.0196 159.562 36.1398 158.77 36.1268C148.664 35.9604 140.212 36.1472 129.758 36.7832C128.967 36.8314 128.555 37.7311 129.083 38.3217C132.746 42.4201 138.074 45 144.004 45C150.26 45 155.845 42.1291 159.513 37.6331Z" stroke="#4C4CFF" stroke-linecap="round" stroke-linejoin="round"/>
<path d="M126.643 15.0579C126.252 15.7378 126.827 16.5294 127.606 16.436C139.173 15.048 147.698 14.6341 159.788 15.3703C160.575 15.4182 161.104 14.5873 160.668 13.9313C157.083 8.54757 150.958 5 144.004 5C136.576 5 130.093 9.04797 126.643 15.0579Z" stroke="#4C4CFF" stroke-linecap="round" stroke-linejoin="round"/>
</g>
<g filter="url(#filter1_f_849_1472)">
<path d="M159.513 37.6331C160.013 37.0196 159.562 36.1398 158.77 36.1268C148.664 35.9604 140.212 36.1472 129.758 36.7832C128.967 36.8314 128.555 37.7311 129.083 38.3217C132.746 42.4201 138.074 45 144.004 45C150.26 45 155.845 42.1291 159.513 37.6331Z" stroke="#4C4CFF" stroke-linecap="round" stroke-linejoin="round"/>
<path d="M126.643 15.0579C126.252 15.7378 126.827 16.5294 127.606 16.436C139.173 15.048 147.698 14.6341 159.788 15.3703C160.575 15.4182 161.104 14.5873 160.668 13.9313C157.083 8.54757 150.958 5 144.004 5C136.576 5 130.093 9.04797 126.643 15.0579Z" stroke="#4C4CFF" stroke-linecap="round" stroke-linejoin="round"/>
</g>
<path d="M159.513 37.6331C160.013 37.0196 159.562 36.1398 158.77 36.1268C148.664 35.9604 140.212 36.1472 129.758 36.7832C128.967 36.8314 128.555 37.7311 129.083 38.3217C132.746 42.4201 138.074 45 144.004 45C150.26 45 155.845 42.1291 159.513 37.6331Z" stroke="#4C4CFF" stroke-linecap="round" stroke-linejoin="round"/>
<path d="M126.643 15.0579C126.252 15.7378 126.827 16.5294 127.606 16.436C139.173 15.048 147.698 14.6341 159.788 15.3703C160.575 15.4182 161.104 14.5873 160.668 13.9313C157.083 8.54757 150.958 5 144.004 5C136.576 5 130.093 9.04797 126.643 15.0579Z" stroke="#4C4CFF" stroke-linecap="round" stroke-linejoin="round"/>
<path d="M159.513 37.6331C160.013 37.0196 159.562 36.1398 158.77 36.1268C148.664 35.9604 140.212 36.1472 129.758 36.7832C128.967 36.8314 128.555 37.7311 129.083 38.3217C132.746 42.4201 138.074 45 144.004 45C150.26 45 155.845 42.1291 159.513 37.6331Z" stroke="white" stroke-width="0.5" stroke-linecap="round" stroke-linejoin="round"/>
<path d="M126.643 15.0579C126.252 15.7378 126.827 16.5294 127.606 16.436C139.173 15.048 147.698 14.6341 159.788 15.3703C160.575 15.4182 161.104 14.5873 160.668 13.9313C157.083 8.54757 150.958 5 144.004 5C136.576 5 130.093 9.04797 126.643 15.0579Z" stroke="white" stroke-width="0.5" stroke-linecap="round" stroke-linejoin="round"/>
<g filter="url(#filter2_f_849_1472)">
<path d="M163.859 27.4656C163.988 26.4133 163.172 25.5115 162.115 25.4264C149.235 24.3883 139.184 24.2251 125.89 24.9245C124.831 24.9802 123.99 25.8596 124.089 26.9156C124.23 28.4145 124.537 29.8654 124.991 31.2496C125.253 32.0473 126.032 32.5408 126.871 32.5118C139.383 32.0783 149.06 32.0468 161.196 32.3747C162.035 32.3973 162.811 31.8976 163.066 31.0975C163.439 29.9298 163.707 28.7155 163.859 27.4656Z" stroke="#E33CD5" stroke-linecap="round" stroke-linejoin="round"/>
</g>
<g filter="url(#filter3_f_849_1472)">
<path d="M163.859 27.4656C163.988 26.4133 163.172 25.5115 162.115 25.4264C149.235 24.3883 139.184 24.2251 125.89 24.9245C124.831 24.9802 123.99 25.8596 124.089 26.9156C124.23 28.4145 124.537 29.8654 124.991 31.2496C125.253 32.0473 126.032 32.5408 126.871 32.5118C139.383 32.0783 149.06 32.0468 161.196 32.3747C162.035 32.3973 162.811 31.8976 163.066 31.0975C163.439 29.9298 163.707 28.7155 163.859 27.4656Z" stroke="#E33CD5" stroke-linecap="round" stroke-linejoin="round"/>
</g>
<path d="M163.859 27.4656C163.988 26.4133 163.172 25.5115 162.115 25.4264C149.235 24.3883 139.184 24.2251 125.89 24.9245C124.831 24.9802 123.99 25.8596 124.089 26.9156C124.23 28.4145 124.537 29.8654 124.991 31.2496C125.253 32.0473 126.032 32.5408 126.871 32.5118C139.383 32.0783 149.06 32.0468 161.196 32.3747C162.035 32.3973 162.811 31.8976 163.066 31.0975C163.439 29.9298 163.707 28.7155 163.859 27.4656Z" stroke="#E33CD5" stroke-linecap="round" stroke-linejoin="round"/>
<path d="M163.859 27.4656C163.988 26.4133 163.172 25.5115 162.115 25.4264C149.235 24.3883 139.184 24.2251 125.89 24.9245C124.831 24.9802 123.99 25.8596 124.089 26.9156C124.23 28.4145 124.537 29.8654 124.991 31.2496C125.253 32.0473 126.032 32.5408 126.871 32.5118C139.383 32.0783 149.06 32.0468 161.196 32.3747C162.035 32.3973 162.811 31.8976 163.066 31.0975C163.439 29.9298 163.707 28.7155 163.859 27.4656Z" stroke="white" stroke-width="0.5" stroke-linecap="round" stroke-linejoin="round"/>
<g filter="url(#filter4_f_849_1472)">
<path d="M124 20.5C126.667 18.5 129.333 18.5 132 20.5C134.667 22.5 137.333 22.5 140 20.5C142.667 18.5 145.333 18.5 148 20.5C150.667 22.5 153.333 22.5 156 20.5C158.667 18.5 161.333 18.5 164 20.5" stroke="#00CCCC" stroke-linecap="round" stroke-linejoin="round"/>
</g>
<g filter="url(#filter5_f_849_1472)">
<path d="M124 20.5C126.667 18.5 129.333 18.5 132 20.5C134.667 22.5 137.333 22.5 140 20.5C142.667 18.5 145.333 18.5 148 20.5C150.667 22.5 153.333 22.5 156 20.5C158.667 18.5 161.333 18.5 164 20.5" stroke="#00CCCC" stroke-linecap="round" stroke-linejoin="round"/>
</g>
<path d="M124 20.5C126.667 18.5 129.333 18.5 132 20.5C134.667 22.5 137.333 22.5 140 20.5C142.667 18.5 145.333 18.5 148 20.5C150.667 22.5 153.333 22.5 156 20.5C158.667 18.5 161.333 18.5 164 20.5" stroke="#00CCCC" stroke-linecap="round" stroke-linejoin="round"/>
<path d="M124 20.5C126.667 18.5 129.333 18.5 132 20.5C134.667 22.5 137.333 22.5 140 20.5C142.667 18.5 145.333 18.5 148 20.5C150.667 22.5 153.333 22.5 156 20.5C158.667 18.5 161.333 18.5 164 20.5" stroke="white" stroke-width="0.5" stroke-linecap="round" stroke-linejoin="round"/>
<g filter="url(#filter6_f_849_1472)">
<ellipse rx="1" ry="0.75" transform="matrix(0.885492 0.464655 0.464655 -0.885492 137.234 39.9812)" stroke="#4C4CFF"/>
<ellipse cx="152.708" cy="11.3542" rx="1.5" ry="1" transform="rotate(15 152.708 11.3542)" stroke="#4C4CFF"/>
<ellipse rx="1" ry="0.75" transform="matrix(0.965926 -0.258819 -0.258819 -0.965926 150.16 39.9835)" stroke="#4C4CFF"/>
<ellipse cx="142.5" cy="12" rx="1.5" ry="1" transform="rotate(180 142.5 12)" stroke="#4C4CFF"/>
<ellipse cx="146.708" cy="8.35415" rx="1.5" ry="1" transform="rotate(15 146.708 8.35415)" stroke="#4C4CFF"/>
<ellipse rx="1" ry="0.75" transform="matrix(1 0 0 -1 144 41.75)" stroke="#4C4CFF"/>
<ellipse cx="135.793" cy="10.5826" rx="1.5" ry="1" transform="rotate(-27.6879 135.793 10.5826)" stroke="#4C4CFF"/>
</g>
<g filter="url(#filter7_f_849_1472)">
<ellipse rx="1" ry="0.75" transform="matrix(0.885492 0.464655 0.464655 -0.885492 137.234 39.9812)" stroke="#4C4CFF"/>
<ellipse cx="152.708" cy="11.3542" rx="1.5" ry="1" transform="rotate(15 152.708 11.3542)" stroke="#4C4CFF"/>
<ellipse rx="1" ry="0.75" transform="matrix(0.965926 -0.258819 -0.258819 -0.965926 150.16 39.9835)" stroke="#4C4CFF"/>
<ellipse cx="142.5" cy="12" rx="1.5" ry="1" transform="rotate(180 142.5 12)" stroke="#4C4CFF"/>
<ellipse cx="146.708" cy="8.35415" rx="1.5" ry="1" transform="rotate(15 146.708 8.35415)" stroke="#4C4CFF"/>
<ellipse rx="1" ry="0.75" transform="matrix(1 0 0 -1 144 41.75)" stroke="#4C4CFF"/>
<ellipse cx="135.793" cy="10.5826" rx="1.5" ry="1" transform="rotate(-27.6879 135.793 10.5826)" stroke="#4C4CFF"/>
</g>
<ellipse rx="1" ry="0.75" transform="matrix(0.885492 0.464655 0.464655 -0.885492 137.234 39.9812)" stroke="#4C4CFF"/>
<ellipse cx="152.708" cy="11.3542" rx="1.5" ry="1" transform="rotate(15 152.708 11.3542)" stroke="#4C4CFF"/>
<ellipse rx="1" ry="0.75" transform="matrix(0.965926 -0.258819 -0.258819 -0.965926 150.16 39.9835)" stroke="#4C4CFF"/>
<ellipse cx="142.5" cy="12" rx="1.5" ry="1" transform="rotate(180 142.5 12)" stroke="#4C4CFF"/>
<ellipse cx="146.708" cy="8.35415" rx="1.5" ry="1" transform="rotate(15 146.708 8.35415)" stroke="#4C4CFF"/>
<ellipse rx="1" ry="0.75" transform="matrix(1 0 0 -1 144 41.75)" stroke="#4C4CFF"/>
<ellipse cx="135.793" cy="10.5826" rx="1.5" ry="1" transform="rotate(-27.6879 135.793 10.5826)" stroke="#4C4CFF"/>
<ellipse rx="1" ry="0.75" transform="matrix(0.885492 0.464655 0.464655 -0.885492 137.234 39.9812)" stroke="white" stroke-width="0.5"/>
<ellipse cx="152.708" cy="11.3542" rx="1.5" ry="1" transform="rotate(15 152.708 11.3542)" stroke="white" stroke-width="0.5"/>
<ellipse rx="1" ry="0.75" transform="matrix(0.965926 -0.258819 -0.258819 -0.965926 150.16 39.9835)" stroke="white" stroke-width="0.5"/>
<ellipse cx="142.5" cy="12" rx="1.5" ry="1" transform="rotate(180 142.5 12)" stroke="white" stroke-width="0.5"/>
<ellipse cx="146.708" cy="8.35415" rx="1.5" ry="1" transform="rotate(15 146.708 8.35415)" stroke="white" stroke-width="0.5"/>
<ellipse rx="1" ry="0.75" transform="matrix(1 0 0 -1 144 41.75)" stroke="white" stroke-width="0.5"/>
<ellipse cx="135.793" cy="10.5826" rx="1.5" ry="1" transform="rotate(-27.6879 135.793 10.5826)" stroke="white" stroke-width="0.5"/>
<path d="M2.8 25.5438C1.968 25.5438 1.29067 25.3038 0.768 24.8238C0.256 24.3331 0 23.6718 0 22.8398C0 21.7411 0.432 20.9464 1.296 20.4558C1.712 20.2211 2.21333 20.1038 2.8 20.1038H14.128V22.1998H3.328C2.74133 22.1998 2.448 22.4238 2.448 22.8718C2.448 23.3198 2.74133 23.5438 3.328 23.5438L11.808 23.5598C12.64 23.5598 13.312 23.8051 13.824 24.2958C14.3467 24.7864 14.608 25.4478 14.608 26.2798C14.608 27.3998 14.176 28.1944 13.312 28.6638C12.9067 28.8878 12.4053 28.9998 11.808 28.9998H0V26.9038L11.28 26.9198C11.8667 26.9198 12.16 26.6904 12.16 26.2318C12.16 25.7838 11.8667 25.5598 11.28 25.5598L2.8 25.5438Z" fill="white"/>
<path d="M29.425 28.9998H21.361C20.4223 28.9998 19.745 28.7864 19.329 28.3598C19.0623 28.0824 18.8863 27.7678 18.801 27.4158C18.737 27.1811 18.705 26.8184 18.705 26.3278V22.1998H17.105V20.1038H18.705V16.5518H21.377V20.1038H29.425V22.1998H21.377V25.6718C21.377 26.1624 21.489 26.4984 21.713 26.6798C21.8943 26.8291 22.1983 26.9038 22.625 26.9038H29.425V28.9998Z" fill="white"/>
<path d="M36.8809 26.9038H46.1769V28.9998H36.5289C35.1422 28.9998 34.0809 28.6104 33.3449 27.8318C32.6195 27.0424 32.2569 25.9491 32.2569 24.5518C32.2569 23.1544 32.6195 22.0664 33.3449 21.2878C34.0809 20.4984 35.1422 20.1038 36.5289 20.1038H46.1769V22.1998H36.8809C36.3902 22.1998 35.9849 22.3384 35.6649 22.6158C35.5155 22.7438 35.3235 23.0424 35.0889 23.5118L35.0729 23.5438H46.1769V25.5438H35.0729L35.0889 25.5918C35.3022 26.0504 35.4942 26.3491 35.6649 26.4878C35.9849 26.7651 36.3902 26.9038 36.8809 26.9038Z" fill="white"/>
<path d="M53.4002 28.9998C51.3522 28.9998 50.0349 28.1678 49.4482 26.5038C49.2243 25.8638 49.1122 25.1918 49.1122 24.4878V20.0718H52.0243V24.2158C52.0243 24.9091 52.2376 25.4531 52.6642 25.8478C53.0056 26.1678 53.4963 26.3278 54.1362 26.3278H62.5042V28.9998H53.4002Z" fill="white"/>
<path d="M69.8177 28.9998C67.7698 28.9998 66.4524 28.1678 65.8657 26.5038C65.6417 25.8638 65.5297 25.1918 65.5297 24.4878V20.0718H68.4417V24.2158C68.4417 24.9091 68.6551 25.4531 69.0817 25.8478C69.4231 26.1678 69.9137 26.3278 70.5537 26.3278H78.9218V28.9998H69.8177Z" fill="white"/>
<path d="M82.5553 22.1998V20.1038H93.2272C94.2832 20.1038 95.1206 20.3811 95.7393 20.9358C96.1233 21.2771 96.3846 21.6771 96.5233 22.1358C96.6193 22.4771 96.6673 22.9571 96.6673 23.5758V28.9998H84.7473C83.8726 28.9998 83.1846 28.7598 82.6833 28.2798C82.1819 27.7998 81.9313 27.1278 81.9313 26.2638C81.9313 25.3998 82.1819 24.7331 82.6833 24.2638C83.1953 23.7838 83.8833 23.5438 84.7473 23.5438H93.9953V23.4638C93.9953 22.8024 93.7499 22.4024 93.2593 22.2638C93.1099 22.2211 92.8806 22.1998 92.5713 22.1998H82.5553ZM93.9953 26.9038V25.5438H85.4512C84.8859 25.5438 84.6032 25.7731 84.6032 26.2318C84.6032 26.6798 84.8859 26.9038 85.4512 26.9038H93.9953Z" fill="white"/>
<path d="M110.182 23.2398C110.182 22.9411 110.087 22.7064 109.895 22.5358C109.756 22.4078 109.543 22.3438 109.255 22.3438L102.614 22.3278V28.9998H99.9425V20.1038L109.702 20.0718C110.748 20.0718 111.548 20.3651 112.103 20.9518C112.604 21.4851 112.854 22.0984 112.854 22.7918V23.7198H110.182V23.2398Z" fill="white"/>
<path d="M185.232 29.9998H174V17.5518H176.672V21.1038H185.232C187.045 21.1038 188.299 21.7758 188.992 23.1198C189.333 23.7811 189.504 24.5918 189.504 25.5518C189.504 27.4824 188.843 28.7944 187.52 29.4878C186.869 29.8291 186.107 29.9998 185.232 29.9998ZM184.88 23.3278H176.672V27.7758H184.88C185.499 27.7758 185.968 27.5518 186.288 27.1038C186.565 26.7198 186.704 26.2024 186.704 25.5518C186.704 24.9011 186.565 24.3838 186.288 23.9998C185.968 23.5518 185.499 23.3278 184.88 23.3278Z" fill="white"/>
<path d="M194.219 26.8318C194.219 27.4611 194.528 27.7758 195.147 27.7758H203.243V21.1038H205.915V29.9998H194.715C193.627 29.9998 192.827 29.7171 192.315 29.1518C191.803 28.5864 191.547 27.9624 191.547 27.2798V21.1038H194.219V26.8318Z" fill="white"/>
<path d="M218.756 24.2398C218.756 23.9411 218.66 23.7064 218.468 23.5358C218.329 23.4078 218.116 23.3438 217.828 23.3438L211.188 23.3278V29.9998H208.516V21.1038L218.276 21.0718C219.321 21.0718 220.121 21.3651 220.676 21.9518C221.177 22.4851 221.428 23.0984 221.428 23.7918V24.7198H218.756V24.2398Z" fill="white"/>
<path d="M240.311 21.1198V30.2558C240.311 31.3011 240.007 32.1171 239.399 32.7038C238.791 33.2904 238.012 33.5838 237.063 33.5838L224.695 33.5518V31.4718L236.583 31.4878C236.999 31.4878 237.287 31.3651 237.447 31.1198C237.575 30.9278 237.639 30.6131 237.639 30.1758V29.9998H227.991C226.604 29.9998 225.543 29.6104 224.807 28.8318C224.081 28.0424 223.719 26.9491 223.719 25.5518C223.719 24.1544 224.081 23.0664 224.807 22.2878C225.543 21.4984 226.604 21.1038 227.991 21.1038L240.311 21.1198ZM228.343 23.3278C227.724 23.3278 227.255 23.5518 226.935 23.9998C226.657 24.3838 226.519 24.9011 226.519 25.5518C226.519 26.2024 226.657 26.7198 226.935 27.1038C227.244 27.5518 227.713 27.7758 228.343 27.7758L237.639 27.7438V23.3438L228.343 23.3278Z" fill="white"/>
<path d="M247.608 27.9038H256.904V29.9998H247.256C245.87 29.9998 244.808 29.6104 244.072 28.8318C243.347 28.0424 242.984 26.9491 242.984 25.5518C242.984 24.1544 243.347 23.0664 244.072 22.2878C244.808 21.4984 245.87 21.1038 247.256 21.1038H256.904V23.1998H247.608C247.118 23.1998 246.712 23.3384 246.392 23.6158C246.243 23.7438 246.051 24.0424 245.816 24.5118L245.8 24.5438H256.904V26.5438H245.8L245.816 26.5918C246.03 27.0504 246.222 27.3491 246.392 27.4878C246.712 27.7651 247.118 27.9038 247.608 27.9038Z" fill="white"/>
<path d="M269.584 24.2398C269.584 23.9411 269.488 23.7064 269.296 23.5358C269.157 23.4078 268.944 23.3438 268.656 23.3438L262.016 23.3278V29.9998H259.344V21.1038L269.104 21.0718C270.149 21.0718 270.949 21.3651 271.504 21.9518C272.005 22.4851 272.256 23.0984 272.256 23.7918V24.7198H269.584V24.2398Z" fill="white"/>
<path d="M277.347 26.5438C276.515 26.5438 275.838 26.3038 275.315 25.8238C274.803 25.3331 274.547 24.6718 274.547 23.8398C274.547 22.7411 274.979 21.9464 275.843 21.4558C276.259 21.2211 276.76 21.1038 277.347 21.1038H288.675V23.1998H277.875C277.288 23.1998 276.995 23.4238 276.995 23.8718C276.995 24.3198 277.288 24.5438 277.875 24.5438L286.355 24.5598C287.187 24.5598 287.859 24.8051 288.371 25.2958C288.894 25.7864 289.155 26.4478 289.155 27.2798C289.155 28.3998 288.723 29.1944 287.859 29.6638C287.454 29.8878 286.952 29.9998 286.355 29.9998H274.547V27.9038L285.827 27.9198C286.414 27.9198 286.707 27.6904 286.707 27.2318C286.707 26.7838 286.414 26.5598 285.827 26.5598L277.347 26.5438Z" fill="white"/>
<defs>
<filter id="filter0_f_849_1472" x="122.012" y="0.5" width="43.3186" height="49" filterUnits="userSpaceOnUse" color-interpolation-filters="sRGB">
<feFlood flood-opacity="0" result="BackgroundImageFix"/>
<feBlend mode="normal" in="SourceGraphic" in2="BackgroundImageFix" result="shape"/>
<feGaussianBlur stdDeviation="2" result="effect1_foregroundBlur_849_1472"/>
</filter>
<filter id="filter1_f_849_1472" x="122.012" y="0.5" width="43.3186" height="49" filterUnits="userSpaceOnUse" color-interpolation-filters="sRGB">
<feFlood flood-opacity="0" result="BackgroundImageFix"/>
<feBlend mode="normal" in="SourceGraphic" in2="BackgroundImageFix" result="shape"/>
<feGaussianBlur stdDeviation="2" result="effect1_foregroundBlur_849_1472"/>
</filter>
<filter id="filter2_f_849_1472" x="119.581" y="20" width="48.792" height="17.0132" filterUnits="userSpaceOnUse" color-interpolation-filters="sRGB">
<feFlood flood-opacity="0" result="BackgroundImageFix"/>
<feBlend mode="normal" in="SourceGraphic" in2="BackgroundImageFix" result="shape"/>
<feGaussianBlur stdDeviation="2" result="effect1_foregroundBlur_849_1472"/>
</filter>
<filter id="filter3_f_849_1472" x="119.581" y="20" width="48.792" height="17.0132" filterUnits="userSpaceOnUse" color-interpolation-filters="sRGB">
<feFlood flood-opacity="0" result="BackgroundImageFix"/>
<feBlend mode="normal" in="SourceGraphic" in2="BackgroundImageFix" result="shape"/>
<feGaussianBlur stdDeviation="2" result="effect1_foregroundBlur_849_1472"/>
</filter>
<filter id="filter4_f_849_1472" x="119.5" y="14.5" width="49" height="12" filterUnits="userSpaceOnUse" color-interpolation-filters="sRGB">
<feFlood flood-opacity="0" result="BackgroundImageFix"/>
<feBlend mode="normal" in="SourceGraphic" in2="BackgroundImageFix" result="shape"/>
<feGaussianBlur stdDeviation="2" result="effect1_foregroundBlur_849_1472"/>
</filter>
<filter id="filter5_f_849_1472" x="119.5" y="14.5" width="49" height="12" filterUnits="userSpaceOnUse" color-interpolation-filters="sRGB">
<feFlood flood-opacity="0" result="BackgroundImageFix"/>
<feBlend mode="normal" in="SourceGraphic" in2="BackgroundImageFix" result="shape"/>
<feGaussianBlur stdDeviation="2" result="effect1_foregroundBlur_849_1472"/>
</filter>
<filter id="filter6_f_849_1472" x="129.885" y="2.81299" width="28.795" height="44.187" filterUnits="userSpaceOnUse" color-interpolation-filters="sRGB">
<feFlood flood-opacity="0" result="BackgroundImageFix"/>
<feBlend mode="normal" in="SourceGraphic" in2="BackgroundImageFix" result="shape"/>
<feGaussianBlur stdDeviation="2" result="effect1_foregroundBlur_849_1472"/>
</filter>
<filter id="filter7_f_849_1472" x="129.885" y="2.81299" width="28.795" height="44.187" filterUnits="userSpaceOnUse" color-interpolation-filters="sRGB">
<feFlood flood-opacity="0" result="BackgroundImageFix"/>
<feBlend mode="normal" in="SourceGraphic" in2="BackgroundImageFix" result="shape"/>
<feGaussianBlur stdDeviation="2" result="effect1_foregroundBlur_849_1472"/>
</filter>
</defs>
</svg>
